<svg viewBox="0 0 640 480" xmlns="http://www.w3.org/2000/svg"><g fill="#003da5"><path d="m266.667969 0v180h-266.667969v-180zm-112.734375 121.648438v-9.671876h-7.667969c0-4.953124 2.132813-9.75 4.402344-11.25 1.332031-1.277343 4.332031-1.875 6.933593-.375 3.398438 2.171876 3.597657 8.472657 1.863282 11.324219 16.203125-3.375 14.601562-21 9.070312-27.375-4.46875-5.175781-9.335937-5.925781-13.070312-4.351562-8.53125 3.449219-14.265625 14.925781-14.53125 32.027343h-4.46875c0-15.527343 2.402344-20.476562 8.667968-40.050781 3.199219-9.226562 1.265626-20.625-4.332031-31.125-2.066406-3.75-4.601562-7.125-7.46875-10.800781-2.867187 3.675781-5.398437 7.050781-7.464843 10.800781-5.601563 10.5-7.535157 21.898438-4.332032 31.125 6.265625 19.574219 8.664063 24.523438 8.664063 40.050781h-4.464844c-.269531-17.101562-6-28.578124-14.535156-32.027343-3.734375-1.574219-8.597657-.824219-13.066407 4.351562-5.53125 6.375-7.132812 24 9.066407 27.375-1.734375-2.851562-1.53125-9.152343 1.867187-11.324219 2.601563-1.5 5.601563-.902343 6.933594.375 2.265625 1.5 4.398438 6.296876 4.398438 11.25h-7.664063v9.671876h15.933594c-.203125 5.027343-2.601563 8.925781-7.066407 11.101562.53125 2.101562 3.265626 6.375 7 6.074219.730469 4.5 1.398438 7.050781 4.730469 11.175781 3.335938-4.125 4-6.675781 4.734375-11.175781 3.734375.300781 6.46875-3.972657 7-6.074219-4.464844-2.175781-6.867187-6.074219-7.066406-11.101562zm0 0"/><path d="m640 0v180h-266.667969v-180zm-112.734375 121.648438v-9.671876h-7.664063c0-4.953124 2.132813-9.75 4.398438-11.25 1.332031-1.277343 4.332031-1.875 6.933594-.375 3.398437 2.171876 3.601562 8.472657 1.867187 11.324219 16.199219-3.375 14.597657-21 9.066407-27.375-4.46875-5.175781-9.332032-5.925781-13.066407-4.351562-8.535156 3.449219-14.265625 14.925781-14.535156 32.027343h-4.464844c0-15.527343 2.398438-20.476562 8.664063-40.050781 3.203125-9.226562 1.269531-20.625-4.332032-31.125-2.066406-3.75-4.597656-7.125-7.464843-10.800781-2.867188 3.675781-5.402344 7.050781-7.46875 10.800781-5.597657 10.5-7.53125 21.898438-4.332031 31.125 6.265624 19.574219 8.667968 24.523438 8.667968 40.050781h-4.46875c-.265625-17.101562-6-28.578124-14.53125-32.027343-3.734375-1.574219-8.601562-.824219-13.070312 4.351562-5.53125 6.375-7.132813 24 9.070312 27.375-1.734375-2.851562-1.535156-9.152343 1.863282-11.324219 2.601562-1.5 5.601562-.902343 6.933593.375 2.269531 1.5 4.402344 6.296876 4.402344 11.25h-7.667969v9.671876h15.933594c-.199219 5.027343-2.601562 8.925781-7.066406 11.101562.53125 2.101562 3.265625 6.375 7 6.074219.734375 4.5 1.398437 7.050781 4.734375 11.175781 3.332031-4.125 4-6.675781 4.730469-11.175781 3.734374.300781 6.46875-3.972657 7-6.074219-4.464844-2.175781-6.863282-6.074219-7.066407-11.101562zm0 0"/><path d="m266.667969 300v180h-266.667969v-180zm-112.734375 121.648438v-9.671876h-7.667969c0-4.953124 2.132813-9.75 4.402344-11.25 1.332031-1.277343 4.332031-1.875 6.933593-.375 3.398438 2.171876 3.597657 8.472657 1.863282 11.324219 16.203125-3.375 14.601562-21 9.070312-27.375-4.46875-5.175781-9.335937-5.925781-13.070312-4.351562-8.53125 3.449219-14.265625 14.925781-14.53125 32.027343h-4.46875c0-15.527343 2.402344-20.476562 8.667968-40.050781 3.199219-9.226562 1.265626-20.625-4.332031-31.125-2.066406-3.75-4.601562-7.125-7.46875-10.800781-2.867187 3.675781-5.398437 7.050781-7.464843 10.800781-5.601563 10.5-7.535157 21.898438-4.332032 31.125 6.265625 19.574219 8.664063 24.523438 8.664063 40.050781h-4.464844c-.269531-17.101562-6-28.578124-14.535156-32.027343-3.734375-1.574219-8.597657-.824219-13.066407 4.351562-5.53125 6.375-7.132812 24 9.066407 27.375-1.734375-2.851562-1.53125-9.152343 1.867187-11.324219 2.601563-1.5 5.601563-.902343 6.933594.375 2.265625 1.5 4.398438 6.296876 4.398438 11.25h-7.664063v9.671876h15.933594c-.203125 5.027343-2.601563 8.925781-7.066407 11.101562.53125 2.101562 3.265626 6.375 7 6.074219.730469 4.5 1.398438 7.050781 4.730469 11.175781 3.335938-4.125 4-6.675781 4.734375-11.175781 3.734375.300781 6.46875-3.972657 7-6.074219-4.464844-2.175781-6.867187-6.074219-7.066406-11.101562zm0 0"/><path d="m640 300v180h-266.667969v-180zm-112.734375 121.648438v-9.671876h-7.664063c0-4.953124 2.132813-9.75 4.398438-11.25 1.332031-1.277343 4.332031-1.875 6.933594-.375 3.398437 2.171876 3.601562 8.472657 1.867187 11.324219 16.199219-3.375 14.597657-21 9.066407-27.375-4.46875-5.175781-9.332032-5.925781-13.066407-4.351562-8.535156 3.449219-14.265625 14.925781-14.535156 32.027343h-4.464844c0-15.527343 2.398438-20.476562 8.664063-40.050781 3.203125-9.226562 1.269531-20.625-4.332032-31.125-2.066406-3.75-4.597656-7.125-7.464843-10.800781-2.867188 3.675781-5.402344 7.050781-7.46875 10.800781-5.597657 10.5-7.53125 21.898438-4.332031 31.125 6.265624 19.574219 8.667968 24.523438 8.667968 40.050781h-4.46875c-.265625-17.101562-6-28.578124-14.53125-32.027343-3.734375-1.574219-8.601562-.824219-13.070312 4.351562-5.53125 6.375-7.132813 24 9.070312 27.375-1.734375-2.851562-1.535156-9.152343 1.863282-11.324219 2.601562-1.5 5.601562-.902343 6.933593.375 2.269531 1.5 4.402344 6.296876 4.402344 11.25h-7.667969v9.671876h15.933594c-.199219 5.027343-2.601562 8.925781-7.066406 11.101562.53125 2.101562 3.265625 6.375 7 6.074219.734375 4.5 1.398437 7.050781 4.734375 11.175781 3.332031-4.125 4-6.675781 4.730469-11.175781 3.734374.300781 6.46875-3.972657 7-6.074219-4.464844-2.175781-6.863282-6.074219-7.066407-11.101562zm0 0"/></g></svg>