<svg viewBox="0 0 640 480" xmlns="http://www.w3.org/2000/svg"><path d="m0 0h640v480h-640z" fill="#fff"/><g transform="matrix(1.776626 0 0 2.220783 39.974093 -508.007961)"><path d="m215.367441 385.602744c-16.006461 7.403428-19.91793 17.151538-26.986717 24.927864-7.068787 7.776325-17.607107 24.502198-38.10769 18.847168-.642017-4.188064-3.289239-15.742618-11.019832-20.968464-4.775554-2.909306-10.602082-7.067468-11.664049-14.136695-8.482545 2.121296-29.721887 3.816925-30.748675-7.422776-.35179-3.887284 2.977026-9.843094-.584851-13.94497-.804721.026384-5.312035.116091-6.492731-.434461-1.237862-1.461689-.01759-6.775482.879476-7.955739l-.008795-.04925c-2.117338-.193485-7.576685-5.181872-.861886-8.717365 1.772144-2.08084 1.462128-3.781746 1.455532-5.700763-1.110338.014072-3.836713-.01583-4.234676-.042214-7.079781-.026385-6.169523-4.594382-4.131338-9.454366 1.413758-3.180185 9.386206-18.379287 10.799964-20.498824 1.413757-2.121295 1.413757-3.181943.35179-5.30148-1.059768-2.121296-.705779-5.65503 0-8.129875.707978-2.473086 2.121736-6.362129 1.061967-7.421017-1.061967-1.060648-.707978-4.596141-.353989-5.301481.353989-.707099.353989-2.474845.353989-3.181944 0-.707098.351791-2.473086 1.413758-3.180184 1.059768-.707099 1.765547-3.181944 1.059768-3.889043-.707978-.705339.35179-5.653271 1.413758-6.00682 1.059768-.353549 3.179305-1.060648 4.241272-3.535493-.125325-3.48976 2.616441-7.450919 4.241272-9.188764 1.059769-1.060648.70578-4.594382.70578-4.594382l3.111146.070358c.338598-.112573 2.897873-3.605851 5.371398-4.31119 2.473526-.707099 8.128556-3.535493 8.128556-3.535493l3.889482-4.240833 3.533295 1.767746s2.827514-1.060647 5.30104-1.414197c2.475725-.353549 7.776766-2.121296 9.542313-4.947931 1.767747-2.828394 1.413758 3.364875 1.470924 3.704352.226465.056287 3.124338-1.584815 8.073588-1.231266 4.947052.353549 10.602082 2.474845 12.369828 1.767747 1.767747-.707099 3.533295 1.414197 3.533295 1.414197s3.535493 2.119537 6.363008 2.119537h5.30104l.35399 2.474845s5.30104 1.824033 7.774566 2.884681c2.473526 1.058889 4.595262 2.416799 7.776766 2.770349 3.179305.353549 4.241272 1.414197 4.241272 1.414197l-1.413758 2.826635s3.814727.777457 4.947052 4.594382c2.121736 2.828395 4.949251 7.422777 7.068788 7.776326 2.121735.353549 3.533294 1.414197 3.533294 1.414197l-2.825316 3.533734s.705779 1.060648 2.119536 2.473086c1.413758 1.414197 4.241273 3.889043 4.241273 3.889043l-1.767747 3.180184s0 .707099.353989 2.474845c.353989 1.765988.353989 4.947932 2.119537 5.65503 1.767747.707099 1.767747 2.826636 1.767747 2.826636s.353989.353549-1.767747 1.060648c-2.119537.707098-3.533294.707098-2.473526 2.121295 1.059769 1.412439 2.827515 3.887284 2.827515 3.887284s-1.767746 1.060648-3.533294 1.414197c-1.767747.353549-3.535493.353549-3.535493.353549s1.413757 6.713919 2.827515 7.774567c1.413757 1.060648-2.119537 1.767746-4.241272.707098-2.119537-1.060647-.795926 3.180185.617831 3.533735 1.413758.353549-.512294.847814-2.172305.865404-1.413758-.35355-3.234273-.105537-2.420757 1.980579 1.059768 2.826636 2.209683 4.223244-.617832 5.637441-2.827515 1.412438-5.391187 7.774566-3.97743 9.895862 1.413758 2.121296 2.209683 5.301481 2.209683 5.301481l-6.714798.353549s-.459526 1.060648 1.306022 2.826636c1.767746 1.767746 3.535493 3.781746 3.287041 4.276011.054967.765144-5.318631.455569-5.265862 1.220713 4.571076 22.591976 15.428205 28.92772 15.441398 30.11853zm0 0" fill-rule="evenodd" stroke="#000"/><path d="m102.754953 277.383238c-2.354796 1.765988-4.414969 4.710473-2.354796 6.47646 2.649421 2.355237 3.827918 3.23999 3.827918 3.23999s-4.711792-1.472243-5.593466.293744c-.883873 1.765988-1.915059 4.453666 0 5.005977 1.470923.882994 4.709593 2.648981 4.709593 2.648981s-7.361213-.882993-5.593466-.589248c-.883874 2.355236-1.767747 6.478219 2.944045 8.244206 4.711792 1.767747 19.432019 7.067468 22.08144 8.539711 2.649421 1.470484 8.539711 2.355236 11.483757 2.355236 2.944045 0 13.838552.58749 12.070806.58749l-6.47734 1.767747c-1.103742.110814 13.396616 4.930342 15.531544 4.488845 1.14112-2.650741 15.97348-16.560531 24.216368.515373.883873 3.827479-2.060172 9.716449-5.004218 10.894947-2.944045 1.176738-4.417167 2.648981-5.595665 5.88897-1.176299 3.23823-4.192901 9.014628-7.431571 8.537952-4.456744-2.907547-6.406982-2.650741-4.344611-.295504 2.28224 3.239989 7.61846 3.387741 10.305259-.58749 2.244862-2.761554 4.267656-9.89938 8.832136-11.777941 2.354797-.882994 5.298842-6.47646 5.298842-6.47646s4.122543-.295504 5.89029 1.472242c1.765548 1.765988 6.182715 1.765988 8.832136 1.470484 2.649421-.293745 7.103967-1.287553 5.630845-1.287553-1.470924 0 4.087364-.182931 5.852911.110814 1.767747.295504 1.176299-4.416727-1.767746-6.771964-2.944046-2.355236-11.186933-6.182715-12.95468-8.537952-1.765547-2.355236-14.427801-9.422704-17.961096-9.716449-3.531095-.295504-7.948263-2.65074-7.948263-2.65074s6.624652-.109055 3.385982-.698304-9.568697-3.129175-12.807367-4.305914c-3.23867-1.178498-5.89029-1.178498-9.421385-1.178498-3.533295 0-26.988916-5.744736-32.841828-9.315408-4.417167-1.472243 20.953513 5.892488 23.897558 6.187992 5.004218.735242 6.587274-.258566-1.655613-4.233797-3.533294-2.059732-19.269316-10.310975-31.861212-13.75852-1.290631 1.287553-.820111 1.688594-3.177107 3.454581zm0 0" fill="#fff" fill-rule="evenodd" stroke="#000" stroke-width=".125"/><path d="m167.046838 325.854671c.116531.012313.591447.096743.894867.415113.338598.43622.624428.826707.793727 1.247097.125325.562864.290227 1.025468.20008 1.56019-.191286.524167-.446334.895306-.795925 1.248855-.393566.485471-.679395.731724-1.092749 1.039541-.459526.21811-.901463.642017-1.290631.831984-.186888.25153-.666203.437979-.894867.728206-.263842.353549-.46832.531204-.496903 1.039541-.171498.504819-.228664 1.125729-.296824 1.663968-.098941.589249-.237458 1.143319-.299021 1.663968-.248452.445015-.518891.67192-1.092749.830226-.474917.084429-.965225.105537-1.488513.105537-.299022-.284951-.80472-.60508-1.094947-.935763 0-.277914 0-.555828 0-.831984" fill="none" stroke="#fff" stroke-linecap="round" stroke-width="2.529824"/><path d="m158.766573 323.532855c2.541685-4.087804 18.451403-11.600287 14.586107 2.983182-.883873 1.547878.77174 2.211002 1.213677 1.106381 4.089562-17.235968-13.477968-10.054168-16.241721-5.524868-1.103742 1.878561.441937 1.546119.441937 1.435305zm0 0" fill="#fff" fill-rule="evenodd" stroke="#fff"/><path d="m101.424746 298.67359c5.967244-.109055 12.264291.221628 17.125594 3.315624s9.170734 3.97699 14.364039 3.97699 7.844925.110814 7.844925.110814" fill="none" stroke="#000" stroke-linecap="round" stroke-width="2"/><path d="m174.849988 307.630172c9.971057 3.85914 11.736605 4.995423 15.947096 7.71828 4.210491 2.724617 5.764964 3.178426 9.311451 5.449233 2.636228 1.588333 4.208292 3.40533 4.208292 3.40533 2.271246 1.816998-9.85013-7.037565-17.723638-5.220568-2.880283 0-3.324419 0-5.982634-2.951521-2.658216-2.951521-5.760567-5.449233-10.193126-7.264471-4.430359-1.816997-12.185138-4.768518-12.185138-4.768518" fill="none" stroke="#000" stroke-width="1.975815"/><path d="m185.929185 324.88373c.60464 0 3.119941-.094984 4.085165.226905.844297.114331 2.194293.223386 2.952841.453809 1.284034.153029 2.466929.42039 3.8587.455569 1.497308.012312 2.02939.46964 3.40577.680714.428745.53648 1.24226 1.182016 1.816118 1.588333" fill="none" stroke="#000" stroke-linecap="round" stroke-width="1.75"/><path d="m103.555276 316.516396c3.660819 5.049951 9.271875 7.818541 15.40402 9.130719-.153908 1.484555-7.442564 1.579539-10.157946 5.020048" fill="none" stroke="#fff" stroke-width="2.25"/><g stroke="#000"><path d="m240.498464 258.367211c.118729 1.289312.523288 6.917957-.037378 6.981279-3.179305.45381-5.371399.986772-8.095575 3.711388-2.724177 2.722858-8.959661 7.361214-12.492955.995567-1.816118-3.632235 2.605447-5.331383 4.876694-5.331383 2.23167-.077393 5.736381-1.801166 9.368616-2.710544 3.632236-.907619 5.107557-3.239989 5.560487-2.78618zm0 0" fill="none" stroke-width="2"/><path d="m254.814132 272.273483c.496904-.272637 2.851701-3.421161 1.633627-7.257435-1.767747-2.648981 7.998833 2.854779 5.938661 5.797505-2.609845 2.033349-7.776766 2.008723-7.572288 1.45993zm0 0" fill="none" stroke-width="2"/><path d="m231.556393 259.983688c-.041775-.599803-.114332-5.973401-.024186-7.158934 1.824913-.272638 7.229292-1.05713 8.405591.708858 4.188504 6.328708-8.009826 9.482508-8.302252 8.597756zm0 0" fill="none" stroke-width="2"/><path d="m221.704065 272.672765 7.655837 26.498608s4.322624 18.808471-8.832136 23.847868c-4.122544.295504-5.595666-.293745-5.595666-.293745l1.178498 6.47646c5.83972 6.022651 9.603876 4.599659 14.610293 2.538168 5.004218-2.061492 5.208696-2.223315 7.858117-3.695558 2.649421-1.470484 6.303643-9.769218 6.708202-12.129731 1.136723-6.100045 4.973436-18.082024 16.490172-43.537574-2.077761-.182931-15.626087 1.187293-16.538543 1.187293-.457328.728206-2.587858 4.209171-5.868303 5.584672-3.603652 1.472242-8.794759-2.770349-3.533294-6.182716 2.572467-1.639343 11.103383.291986 10.942878-4.163438-.215471-3.871453-5.936462-3.49152-8.293457-3.197775-2.354797.295504-5.593467 2.944485-7.066589 4.416728-3.295836 3.296276-7.948263 3.827479-9.716009 2.65074zm0 0" fill="none" stroke-width="2"/><path d="m209.927883 335.680176c1.765547 2.944485 3.533294 6.47646 4.417167 11.188692.881675 4.710472 3.432155 11.299506 10.010634 12.954679 5.298842 1.472243 10.010634 3.827479 11.186933 7.948703 1.178498 4.122983 2.020596 9.38049 2.020596 9.289024l8.194517-11.59501c-.092345-1.549636-.153909-5.327865-.153909-9.744592-.092345-6.423692-4.852508-7.990918-9.562101-9.756906-4.711792-1.767746-9.990846-3.961159-11.463968-6.61014-1.470923-2.650741-5.228484-7.208184-7.288656-8.974172-2.062371-1.765988-7.361213 5.299722-7.361213 5.299722zm0 0" fill="none" stroke-width="2"/><path d="m218.588521 390.336083c4.551288 8.184402 5.593467 18.69238 7.464552 26.521474 3.247464-6.168644 8.302252-10.566023 13.631876-14.02764.312214-6.142259 1.868886-14.620407 3.634434-17.269388 8.533114-12.435789 2.528493-19.554267 2.528493-19.554267-8.526519 10.013713-8.821143 17.177923-27.243964 24.315749zm0 0" fill="none" stroke-width="2"/><path d="m210.479754 415.629809c-.23526 2.031589 2.48232 9.09378 7.081979 9.408633 4.520506.309575 7.128152-3.166113 7.954859-7.231051l-2.26465-13.645947zm0 0" fill="none" stroke-width="2"/><path d="m210.446773 325.110635c-.908058-2.495953.455129-2.497712 2.950642-1.361429 4.087364 2.497711 1.136723 8.852804-3.403572 10.215992-2.497711 1.134523-3.860899-1.816998-.228663-3.178426 3.40577-.907619.681593-5.903042.681593-5.676137h.226465zm0 0" fill="#fff" fill-rule="evenodd"/><path d="m239.959785 363.958843v.307816c0-.830225-.015391-.408077.226465 1.233025 0 1.665728.125325 3.064094.226465 4.617249 0 1.287552-.15171 2.209243-.226465 3.387741" fill="none" stroke-width="1.25"/><path d="m237.688538 365.496166v.562865c0-1.03954-.028583-.745796.228664.844297.090146 1.583056.408956 2.411523.45293 3.934775 0 1.546118-.18469 2.747483-.226465 4.217966" fill="none" stroke-width="1.25"/><path d="m236.554015 399.347193h.226465c-.059365.212833 0 1.430027 0 2.242663 0 1.224231-.021987 2.418559-.226465 3.20481" fill="none" stroke-width="1.25"/><path d="m234.056303 400.481717v.453809-.453809.453809-.453809c.05057 1.678039.228664 2.605007.228664 4.312949 0 .522409.096742.918173-.228664 1.136283" fill="none" stroke-width="1.25"/><path d="m231.787255 401.843145c.092345 1.82931.397963 3.025397.45293 4.903958 0 .944557-.189087 1.048335-.226465 1.906703" fill="none" stroke-width="1.25"/><path d="m229.063079 403.225681v.288468c0-.775697-.015391-.381692.226465 1.146837.041775 1.40892.226465 2.168787.226465 3.728978-.041775 1.498626-.373777 2.123054-.45293 3.442268" fill="none" stroke-width="1.25"/><path d="m227.020496 404.113952c0 .406318.120928 1.978821.226465 2.951521v3.178426c-.125325 1.05713-.356188 2.195171-.681594 2.951521v.680714" fill="none" stroke-width="1.25"/><path d="m242.228833 364.458385c.059364.427425.395764 2.056215 0 3.102791 0 .925208-.105537 1.398366-.226465 2.066768" fill="none" stroke-width="1.25"/><path d="m216.016054 325.203859c3.047384.624428 10.467962 0 13.436193-2.188136 2.97043-2.186377 2.97043-2.186377 2.97043-2.186377" fill="none"/><path d="m216.024849 326.698968c2.911065 1.095827 10.338239 1.648138 13.614287-.043974 3.278246-1.692111 3.278246-1.692111 3.278246-1.692111" fill="none"/><path d="m215.780795 330.67244c1.563268 1.875043 2.656017 2.812564 3.126536 5.313793.468321 2.499471.468321 2.499471.468321 2.499471" fill="none"/><path d="m213.905312 331.609961c1.875483 2.656017 3.126537 3.593539 3.750965 6.251315.624428 2.656017.624428 2.656017.624428 2.656017" fill="none"/><path d="m212.344243 333.328457c.780534 4.063179 3.904872 11.719896 6.248676 14.219366 2.343803 2.49947 2.343803 2.49947 2.343803 2.49947" fill="none"/><path d="m224.058861 419.629665c-1.57646-.204038-4.643632-2.751-5.331822-3.665655s-.73876-1.299866-.73876-1.299866" fill="none" stroke-width="1.195803"/><path d="m222.97051 421.696433c-1.706183-.411594-5.024006-3.20481-5.769362-4.149367-.745356-.942798-.897065-1.19081-.897065-1.19081" fill="none" stroke-width="1.195696"/><path d="m222.033868 423.601378c-1.800727-.197002-5.523108-3.016602-6.395988-4.036794-.870681-1.021951-.870681-1.021951-.870681-1.021951" fill="none" stroke-width="1.352552"/><path d="m244.396741 282.037424c-.228664 1.89615-.342996 5.630405.345194 7.9874.690388 2.355237.690388 2.355237.690388 2.355237" fill="none"/><path d="m249.913253 276.064024c-1.321412.459087-3.276048 1.49335-3.907072 2.355237-.631023.861886-.631023.861886-.631023.861886" fill="none"/><path d="m233.968356 277.764931c2.845104 5.002458 1.961231 21.346638 1.374181 23.207609-.589249 1.860971-.589249 1.860971-.589249 1.860971" fill="none" stroke-width="1.315111"/><path d="m224.687686 267.626333c-1.171901.390487-3.594857 2.304227-3.788342 3.359598" fill="none"/><path d="m226.563169 268.993038c-1.171902.390488-3.594858 2.304227-3.790541 3.359598" fill="none"/></g></g><g fill="none" stroke="#feffff" transform="matrix(1.776626 0 0 2.220783 0 -.003865)"><path d="m129.672121 92.30801c-2.321816-.123127-2.508705 6.604864.481513 6.450076" stroke-width="1.45"/><path d="m130.158031 92.30801c2.321817-.123127 2.508705 6.604864-.481513 6.450076" stroke-width="1.45"/><path d="m129.999726 92.443449-.079153 5.639199" stroke-width="3.571788"/></g></svg>