<?xml version="1.0" encoding="UTF-8"?>
<svg xmlns="http://www.w3.org/2000/svg" xmlns:xlink="http://www.w3.org/1999/xlink" viewBox="0 0 640 480" version="1.1">
<g id="surface1">
<rect x="0" y="0" width="640" height="480" style="fill:rgb(100%,100%,100%);fill-opacity:1;stroke:none;"/>
<path style=" stroke:none;fill-rule:evenodd;fill:rgb(92.941176%,12.54902%,14.117647%);fill-opacity:1;" d="M 0 0 L 640 0 L 640 160 L 0 160 Z M 0 0 "/>
<path style=" stroke:none;fill-rule:evenodd;fill:rgb(15.294118%,55.686275%,26.27451%);fill-opacity:1;" d="M 0 320 L 640 320 L 640 480 L 0 480 Z M 0 320 "/>
<path style=" stroke:none;fill-rule:evenodd;fill:rgb(99.607843%,74.117647%,6.666667%);fill-opacity:1;" d="M 320 120 L 327.992188 181.011719 L 351.617188 125.359375 L 343.269531 186.3125 L 380.425781 140.96875 L 356.480469 196.445312 L 403.863281 165.433594 L 366.449219 210.503906 L 419.851562 196.585938 L 372.289062 227.246094 L 426.964844 231.65625 L 373.484375 245.183594 L 424.574219 267.527344 L 369.925781 262.71875 L 412.894531 301.011719 L 361.933594 278.292969 L 392.960938 329.132812 L 350.210938 290.527344 L 366.539062 349.398438 L 335.808594 298.332031 L 335.988281 360 L 320 301.011719 L 304.011719 360 L 304.191406 298.332031 L 273.460938 349.398438 L 289.789062 290.527344 L 247.039062 329.132812 L 278.066406 278.292969 L 227.105469 301.011719 L 270.074219 262.71875 L 215.425781 267.527344 L 266.515625 245.183594 L 213.035156 231.65625 L 267.710938 227.246094 L 220.148438 196.585938 L 273.550781 210.503906 L 236.136719 165.433594 L 283.519531 196.441406 L 259.574219 140.96875 L 296.730469 186.3125 L 288.382812 125.359375 L 312.007812 181.011719 Z M 320 120 "/>
</g>
</svg>
