<?xml version="1.0" encoding="UTF-8"?>
<svg xmlns="http://www.w3.org/2000/svg" xmlns:xlink="http://www.w3.org/1999/xlink" viewBox="0 0 640 480" version="1.1">
<g id="surface1">
<rect x="0" y="0" width="640" height="480" style="fill:rgb(0.392157%,33.333333%,64.705882%);fill-opacity:1;stroke:none;"/>
<path style=" stroke:none;fill-rule:nonzero;fill:rgb(100%,100%,100%);fill-opacity:1;" d="M 0 205.714844 L 0 342.855469 L 182.855469 480 L 365.714844 480 Z M 0 205.714844 "/>
<path style=" stroke:none;fill-rule:nonzero;fill:rgb(100%,100%,100%);fill-opacity:1;" d="M 91.429688 0 L 0 0 L 0 68.570312 L 548.570312 480 L 640 480 L 640 411.429688 Z M 91.429688 0 "/>
<path style=" stroke:none;fill-rule:nonzero;fill:rgb(100%,100%,100%);fill-opacity:1;" d="M 274.285156 0 L 457.144531 0 L 640 137.144531 L 640 274.285156 Z M 274.285156 0 "/>
<path style=" stroke:none;fill-rule:nonzero;fill:rgb(93.333333%,24.313725%,20.392157%);fill-opacity:1;" d="M 297.78125 274.765625 C 278.332031 255.578125 274.992188 223.761719 289.964844 200.328125 C 295.957031 190.953125 305.917969 185.921875 315.207031 187.582031 C 324.496094 189.242188 331.28125 197.265625 332.398438 207.910156 C 332.789062 211.632812 330.851562 216.832031 326.582031 223.507812 C 325.558594 225.109375 325.929688 227.304688 327.40625 228.410156 C 328.882812 229.519531 330.910156 229.121094 331.933594 227.519531 C 336.199219 220.84375 340.007812 217.046875 343.363281 216.132812 C 352.953125 213.519531 362.273438 217.574219 366.976562 226.410156 C 371.679688 235.242188 370.839844 247.117188 364.847656 256.492188 C 349.875 279.921875 321.207031 287.734375 297.78125 274.765625 Z M 297.78125 274.765625 "/>
<path style=" stroke:none;fill-rule:nonzero;fill:rgb(93.333333%,24.313725%,20.392157%);fill-opacity:1;" d="M 41.78125 357.054688 C 22.332031 337.863281 18.992188 306.046875 33.964844 282.617188 C 39.957031 273.242188 49.917969 268.210938 59.207031 269.867188 C 68.496094 271.527344 75.28125 279.550781 76.398438 290.195312 C 76.789062 293.917969 74.851562 299.117188 70.582031 305.792969 C 69.558594 307.394531 69.929688 309.589844 71.40625 310.695312 C 72.882812 311.804688 74.910156 311.40625 75.933594 309.804688 C 80.199219 303.128906 84.007812 299.332031 87.363281 298.417969 C 96.953125 295.804688 106.273438 299.859375 110.976562 308.695312 C 115.679688 317.53125 114.839844 329.402344 108.847656 338.777344 C 93.875 362.207031 65.207031 370.019531 41.78125 357.054688 Z M 41.78125 357.054688 "/>
<path style=" stroke:none;fill-rule:nonzero;fill:rgb(93.333333%,24.313725%,20.392157%);fill-opacity:1;" d="M 553.78125 192.480469 C 534.332031 173.292969 530.992188 141.476562 545.964844 118.042969 C 551.957031 108.667969 561.917969 103.636719 571.207031 105.296875 C 580.496094 106.957031 587.28125 114.980469 588.398438 125.625 C 588.789062 129.34375 586.851562 134.546875 582.582031 141.222656 C 581.558594 142.824219 581.929688 145.015625 583.40625 146.125 C 584.882812 147.234375 586.910156 146.832031 587.933594 145.234375 C 592.199219 138.554688 596.007812 134.761719 599.363281 133.847656 C 608.953125 131.234375 618.273438 135.289062 622.976562 144.125 C 627.679688 152.957031 626.839844 164.832031 620.847656 174.207031 C 605.875 197.636719 577.207031 205.449219 553.78125 192.480469 Z M 553.78125 192.480469 "/>
<path style=" stroke:none;fill-rule:nonzero;fill:rgb(93.333333%,24.313725%,20.392157%);fill-opacity:1;" d="M 127.113281 146.765625 C 107.664062 127.578125 104.324219 95.761719 119.296875 72.328125 C 125.289062 62.953125 135.25 57.921875 144.539062 59.582031 C 153.828125 61.242188 160.613281 69.265625 161.730469 79.910156 C 162.121094 83.632812 160.183594 88.832031 155.917969 95.507812 C 154.894531 97.109375 155.261719 99.304688 156.738281 100.410156 C 158.214844 101.519531 160.242188 101.121094 161.265625 99.519531 C 165.53125 92.84375 169.34375 89.046875 172.695312 88.132812 C 182.285156 85.519531 191.605469 89.574219 196.308594 98.410156 C 201.011719 107.242188 200.171875 119.117188 194.179688 128.492188 C 179.207031 151.921875 150.539062 159.734375 127.113281 146.765625 Z M 127.113281 146.765625 "/>
<path style=" stroke:none;fill-rule:nonzero;fill:rgb(93.333333%,24.313725%,20.392157%);fill-opacity:1;" d="M 468.449219 402.765625 C 449 383.578125 445.65625 351.761719 460.632812 328.328125 C 466.621094 318.953125 476.585938 313.921875 485.875 315.582031 C 495.160156 317.242188 501.945312 325.265625 503.0625 335.910156 C 503.457031 339.632812 501.515625 344.832031 497.25 351.507812 C 496.226562 353.109375 496.597656 355.304688 498.074219 356.410156 C 499.550781 357.519531 501.578125 357.121094 502.597656 355.519531 C 506.867188 348.84375 510.675781 345.046875 514.027344 344.132812 C 523.621094 341.519531 532.941406 345.574219 537.644531 354.410156 C 542.347656 363.242188 541.503906 375.117188 535.515625 384.492188 C 520.539062 407.921875 491.875 415.734375 468.449219 402.765625 Z M 468.449219 402.765625 "/>
<path style=" stroke:none;fill-rule:nonzero;fill:rgb(93.333333%,24.313725%,20.392157%);fill-opacity:1;" d="M 442.882812 109.308594 C 423.433594 90.121094 420.09375 58.300781 435.066406 34.871094 C 441.054688 25.496094 451.019531 20.464844 460.308594 22.121094 C 469.59375 23.78125 476.378906 31.804688 477.496094 42.449219 C 477.890625 46.171875 475.949219 51.371094 471.683594 58.046875 C 470.660156 59.648438 471.03125 61.84375 472.507812 62.953125 C 473.984375 64.058594 476.011719 63.660156 477.03125 62.058594 C 481.300781 55.382812 485.109375 51.585938 488.464844 50.671875 C 498.054688 48.058594 507.375 52.117188 512.078125 60.949219 C 516.78125 69.785156 515.941406 81.65625 509.949219 91.03125 C 494.972656 114.460938 466.308594 122.273438 442.882812 109.308594 Z M 442.882812 109.308594 "/>
<path style=" stroke:none;fill-rule:nonzero;fill:rgb(93.333333%,24.313725%,20.392157%);fill-opacity:1;" d="M 152.679688 440.226562 C 133.230469 421.039062 129.890625 389.222656 144.863281 365.789062 C 150.855469 356.414062 160.816406 351.382812 170.105469 353.042969 C 179.394531 354.703125 186.179688 362.722656 187.296875 373.371094 C 187.6875 377.089844 185.75 382.289062 181.480469 388.96875 C 180.460938 390.566406 180.828125 392.761719 182.304688 393.871094 C 183.78125 394.980469 185.808594 394.578125 186.832031 392.980469 C 191.097656 386.300781 194.910156 382.507812 198.261719 381.59375 C 207.851562 378.980469 217.171875 383.035156 221.875 391.871094 C 226.578125 400.703125 225.738281 412.578125 219.746094 421.953125 C 204.773438 445.382812 176.105469 453.195312 152.679688 440.226562 Z M 152.679688 440.226562 "/>
</g>
</svg>
